<?xml version="1.0" encoding="utf-8"?>
<!-- Generator: Adobe Illustrator 24.1.1, SVG Export Plug-In . SVG Version: 6.00 Build 0)  -->
<svg version="1.1" id="Capa_1" xmlns="http://www.w3.org/2000/svg" xmlns:xlink="http://www.w3.org/1999/xlink" x="0px" y="0px"
	 viewBox="0 0 381.9 353.3" style="enable-background:new 0 0 381.9 353.3;" xml:space="preserve">
<style type="text/css">
	.st0{fill:#F0C419;}
	.st1{fill:#E64C3C;}
	.st2{fill:#F29C1F;}
	.st3{fill:#2FA8CC;}
	.st4{fill:#4FBA6F;}
	.st5{fill:#955BA5;}
</style>
<g id="Page-1">
	<g id="_x30_38---Support" transform="translate(-1)">
		<path id="Shape" class="st0" d="M367.1,60.3c-13.6-33.4-45.9-55.4-82-55.9c-51.9,0-80.6,40.2-89.7,55.9c-2.2,3.8-3.4,6.1-3.4,6.1
			s-1.1-2.3-3.4-6.1c-9.3-15.6-37.8-55.9-89.7-55.9c-36.1,0.4-68.4,22.4-82,55.9c-7.4,16.3-11.2,34.1-11.1,52v3.8
			c0.6,19.5,5.8,38.6,15,55.9c11.2,20.4,25.2,39.2,41.4,55.9c16.3,17.5,35.8,35.8,57.9,55.9s45.8,41.1,71.9,65.2
			c26.1-24.1,50.2-45.4,71.8-65.2s41.6-38.4,57.9-55.9c16.3-16.7,30.2-35.5,41.4-55.9c9.3-17.2,14.4-36.3,15.1-55.9
			c0-1.3,0-2.5,0-3.8C378.3,94.4,374.5,76.6,367.1,60.3z"/>
		<path id="Shape_1_" class="st1" d="M188.6,60.3H16.9c13.6-33.4,45.9-55.4,82-55.9C150.8,4.4,179.5,44.6,188.6,60.3z"/>
		<path id="Shape_2_" class="st1" d="M367.1,60.3H195.3c9.3-15.6,37.8-55.9,89.7-55.9C321.1,4.8,353.5,26.8,367.1,60.3z"/>
		<path id="Shape_3_" class="st2" d="M378.1,112.3c0,1.3,0,2.5,0,3.8H5.8c0-1.3,0-2.5,0-3.8c-0.1-17.9,3.7-35.7,11.1-52h171.8
			c2.2,3.8,3.4,6.1,3.4,6.1s1.1-2.3,3.4-6.1h171.8C374.5,76.6,378.3,94.4,378.1,112.3L378.1,112.3z"/>
		<path id="Shape_4_" class="st3" d="M363.1,172c-11.2,20.4-25.2,39.2-41.4,55.9H62.3C46,211.2,32.1,192.4,20.9,172H363.1z"/>
		<path id="Shape_5_" class="st4" d="M321.6,227.8c-16.3,17.5-35.8,35.8-57.9,55.9H120.2c-22.1-20-41.6-38.4-57.9-55.9H321.6z"/>
		<path id="Shape_6_" class="st5" d="M263.7,283.7c-21.6,19.7-45.7,41.1-71.8,65.2c-26.1-24.1-50.2-45.4-71.8-65.2H263.7z"/>
	</g>
</g>
</svg>
