<?xml version="1.0" encoding="utf-8"?>
<!-- Generator: Adobe Illustrator 24.1.1, SVG Export Plug-In . SVG Version: 6.00 Build 0)  -->
<svg version="1.1" id="Capa_1" xmlns="http://www.w3.org/2000/svg" xmlns:xlink="http://www.w3.org/1999/xlink" x="0px" y="0px"
	 viewBox="0 0 165 260" style="enable-background:new 0 0 165 260;" xml:space="preserve">
<style type="text/css">
	.st0{fill:#292727;}
	.st1{clip-path:url(#SVGID_2_);}
	.st2{fill-rule:evenodd;clip-rule:evenodd;fill:#D72729;}
	.st3{fill-rule:evenodd;clip-rule:evenodd;fill:#786240;}
	.st4{fill-rule:evenodd;clip-rule:evenodd;fill:#241F1C;}
	.st5{fill-rule:evenodd;clip-rule:evenodd;fill:#219B4E;}
	.st6{fill-rule:evenodd;clip-rule:evenodd;fill:#E57F2A;}
	.st7{fill-rule:evenodd;clip-rule:evenodd;fill:#3868A6;}
	.st8{fill-rule:evenodd;clip-rule:evenodd;fill:#F0DE32;}
	.st9{fill-rule:evenodd;clip-rule:evenodd;fill:#8E2E6B;}
	.st10{fill:#FFFFFF;}
</style>
<g>
	<g>
		<path class="st0" d="M25.6,173.7v7.5h10.8v2.7H25.6v8.7h-3.1V171h15.2v2.7H25.6z"/>
		<path class="st0" d="M56.5,192.6l-4.7-6.6c-0.6,0-1,0.1-1.4,0.1h-5.3v6.6H42V171h8.4c2.8,0,5,0.7,6.6,2s2.4,3.2,2.4,5.5
			c0,1.7-0.4,3.1-1.2,4.3s-2,2-3.5,2.6l5.1,7.2H56.5z M54.9,182.2c1-0.8,1.5-2,1.5-3.6s-0.5-2.8-1.5-3.6s-2.5-1.2-4.5-1.2h-5.2v9.7
			h5.2C52.4,183.4,53.9,183,54.9,182.2z"/>
		<path class="st0" d="M80.2,189.9v2.7H64.5V171h15.2v2.7H67.6v6.6h10.8v2.6H67.6v7L80.2,189.9L80.2,189.9z"/>
		<path class="st0" d="M103.7,171v21.6h-2.5l-12.9-16.1v16.1h-3.1V171h2.5l12.9,16.1V171H103.7z"/>
		<path class="st0" d="M114.5,173.7h-7.4V171h17.8v2.7h-7.4v18.9h-3.1v-18.9H114.5z"/>
		<path class="st0" d="M143.9,189.9v2.7h-15.7V171h15.2v2.7h-12.1v6.6h10.8v2.6h-10.8v7L143.9,189.9L143.9,189.9z"/>
		<path class="st0" d="M9.3,220.4c-1.8-1-3.2-2.3-4.3-4c-1-1.7-1.6-3.6-1.6-5.8c0-2.1,0.5-4.1,1.6-5.8c1-1.7,2.5-3,4.3-4
			s3.9-1.4,6.1-1.4c2.3,0,4.3,0.5,6.1,1.4c1.8,1,3.2,2.3,4.3,4c1,1.7,1.6,3.6,1.6,5.8c0,2.1-0.5,4.1-1.6,5.8c-1,1.7-2.5,3-4.3,4
			s-3.9,1.4-6.1,1.4C13.2,221.9,11.1,221.4,9.3,220.4z M18.4,216.1c0.9-0.5,1.6-1.2,2.1-2.2c0.5-0.9,0.8-2,0.8-3.2s-0.3-2.3-0.8-3.2
			s-1.2-1.7-2.1-2.2s-1.9-0.8-3-0.8s-2.1,0.3-3,0.8s-1.6,1.2-2.1,2.2c-0.5,0.9-0.8,2-0.8,3.2s0.3,2.3,0.8,3.2s1.2,1.7,2.1,2.2
			c0.9,0.5,1.9,0.8,3,0.8C16.5,216.8,17.5,216.6,18.4,216.1z"/>
		<path class="st0" d="M40.1,215.7h-3.3v5.7h-6.1v-21.6h9.9c2,0,3.6,0.3,5.1,1c1.4,0.6,2.5,1.6,3.3,2.8s1.2,2.6,1.2,4.2
			c0,1.6-0.4,2.9-1.1,4.1c-0.7,1.2-1.8,2.1-3.1,2.7l4.7,6.8H44L40.1,215.7z M43,205.5c-0.6-0.6-1.6-0.8-2.8-0.8h-3.4v6.3h3.4
			c1.3,0,2.2-0.3,2.8-0.8s1-1.3,1-2.3C43.9,206.9,43.6,206.1,43,205.5z"/>
		<path class="st0" d="M67.9,210.2h5.4v8.9c-1.2,0.9-2.7,1.6-4.3,2c-1.6,0.5-3.2,0.7-4.8,0.7c-2.3,0-4.3-0.5-6.1-1.4
			c-1.8-1-3.2-2.3-4.3-4c-1-1.7-1.5-3.6-1.5-5.8s0.5-4.1,1.5-5.8s2.5-3,4.3-4s3.9-1.4,6.2-1.4c2,0,3.8,0.3,5.4,1s2.9,1.7,4,2.9
			l-3.9,3.5c-1.5-1.6-3.2-2.4-5.2-2.4c-1.8,0-3.3,0.6-4.5,1.7c-1.1,1.1-1.7,2.6-1.7,4.5c0,1.2,0.3,2.3,0.8,3.2s1.2,1.7,2.2,2.2
			c0.9,0.5,2,0.8,3.2,0.8c1.2,0,2.3-0.2,3.3-0.7V210.2z"/>
		<path class="st0" d="M79.7,219.3c-1.8-1.7-2.7-4.2-2.7-7.4v-12h6.1v11.8c0,3.5,1.4,5.2,4.1,5.2s4.1-1.7,4.1-5.2v-11.8h6v12
			c0,3.2-0.9,5.7-2.7,7.4c-1.8,1.7-4.3,2.6-7.5,2.6C83.9,221.9,81.4,221,79.7,219.3z"/>
		<path class="st0" d="M101.4,199.9h6.1v16.7h10.3v4.8h-16.4V199.9z"/>
		<path class="st0" d="M120.2,199.9h6.1v16.7h10.3v4.8h-16.4C120.2,221.4,120.2,199.9,120.2,199.9z"/>
		<path class="st0" d="M143.4,220.4c-1.8-1-3.2-2.3-4.3-4c-1-1.7-1.6-3.6-1.6-5.8c0-2.1,0.5-4.1,1.6-5.8c1-1.7,2.5-3,4.3-4
			s3.9-1.4,6.1-1.4c2.3,0,4.3,0.5,6.1,1.4c1.8,1,3.2,2.3,4.3,4c1,1.7,1.6,3.6,1.6,5.8c0,2.1-0.5,4.1-1.6,5.8c-1,1.7-2.5,3-4.3,4
			s-3.9,1.4-6.1,1.4C147.3,221.9,145.2,221.4,143.4,220.4z M152.5,216.1c0.9-0.5,1.6-1.2,2.1-2.2c0.5-0.9,0.8-2,0.8-3.2
			s-0.3-2.3-0.8-3.2s-1.2-1.7-2.1-2.2c-0.9-0.5-1.9-0.8-3-0.8s-2.1,0.3-3,0.8s-1.6,1.2-2.1,2.2c-0.5,0.9-0.8,2-0.8,3.2
			s0.3,2.3,0.8,3.2s1.2,1.7,2.1,2.2c0.9,0.5,1.9,0.8,3,0.8C150.6,216.8,151.6,216.6,152.5,216.1z"/>
		<path class="st0" d="M23.7,242.5v7.7h-6.1v-7.8l-8.2-13.7h6.4l5.1,8.6l5.1-8.6h6L23.7,242.5z"/>
		<path class="st0" d="M42.5,228.7h6.1v16.7h10.3v4.8H42.5V228.7z"/>
		<path class="st0" d="M63.6,248.1c-1.8-1.7-2.7-4.2-2.7-7.4v-12H67v11.8c0,3.5,1.4,5.2,4.1,5.2s4.1-1.7,4.1-5.2v-11.8h6v12
			c0,3.2-0.9,5.7-2.7,7.4c-1.8,1.7-4.3,2.6-7.5,2.6C67.8,250.7,65.4,249.8,63.6,248.1z"/>
		<path class="st0" d="M90,249.3c-1.8-1-3.2-2.3-4.2-4s-1.5-3.6-1.5-5.8s0.5-4.1,1.5-5.8s2.4-3,4.2-4c1.8-1,3.8-1.4,6.1-1.4
			c2,0,3.7,0.3,5.3,1c1.6,0.7,2.9,1.7,3.9,3l-3.9,3.5c-1.4-1.7-3.1-2.5-5.1-2.5c-1.2,0-2.2,0.3-3.1,0.8s-1.6,1.2-2.1,2.2
			c-0.5,0.9-0.8,2-0.8,3.2s0.3,2.3,0.8,3.2s1.2,1.7,2.1,2.2s2,0.8,3.1,0.8c2,0,3.7-0.8,5.1-2.5l3.9,3.5c-1,1.3-2.4,2.3-3.9,3
			c-1.6,0.7-3.4,1-5.3,1C93.8,250.7,91.8,250.2,90,249.3z"/>
		<path class="st0" d="M128.6,228.7v21.6h-6.1v-8.4h-8.3v8.4h-6.1v-21.6h6.1v8.1h8.3v-8.1H128.6z"/>
		<path class="st0" d="M147.4,246.1h-9.1l-1.7,4.2h-6.2l9.5-21.6h6l9.6,21.6H149L147.4,246.1z M145.6,241.6l-2.8-6.9l-2.8,6.9H145.6
			z"/>
	</g>
	<g>
		<g>
			<g>
				<defs>
					<circle id="SVGID_1_" cx="82.6" cy="115.6" r="44.8"/>
				</defs>
				<clipPath id="SVGID_2_">
					<use xlink:href="#SVGID_1_"  style="overflow:visible;"/>
				</clipPath>
				<g class="st1">
					<g>
						<rect x="30.7" y="71.2" class="st2" width="100.6" height="15.1"/>
					</g>
					<g>
						<rect x="30.7" y="56" class="st3" width="100.6" height="15.1"/>
					</g>
					<g>
						<rect x="30.7" y="40.8" class="st4" width="100.6" height="15.1"/>
					</g>
					<g>
						<g>
							<rect x="30.7" y="116.3" class="st5" width="100.6" height="15.1"/>
						</g>
					</g>
					<g>
						<g>
							<rect x="30.7" y="86.1" class="st6" width="100.6" height="15.1"/>
						</g>
					</g>
					<g>
						<g>
							<rect x="30.7" y="131.2" class="st7" width="100.6" height="15.1"/>
						</g>
					</g>
					<g>
						<g>
							<rect x="30.7" y="101.3" class="st8" width="100.6" height="15.1"/>
						</g>
					</g>
					<g>
						<g>
							<rect x="30.7" y="146.2" class="st9" width="100.6" height="15.1"/>
						</g>
					</g>
				</g>
			</g>
		</g>
		<g>
			<path class="st0" d="M82.5,161c-25.3,0-45.8-20.5-45.8-45.8s20.5-45.8,45.8-45.8s45.8,20.5,45.8,45.8S107.8,161,82.5,161z
				 M82.5,71.5c-24.1,0-43.8,19.6-43.8,43.8c0,24.1,19.6,43.8,43.8,43.8s43.8-19.6,43.8-43.8S106.6,71.5,82.5,71.5z"/>
		</g>
		<g>
			<g>
				<path class="st0" d="M50,35c-0.2,0-0.4-0.1-0.6-0.2L39,27.3c-0.5-0.4-0.6-1-0.3-1.5c0.4-0.5,1-0.6,1.5-0.3L50.6,33
					c0.5,0.4,0.6,1,0.3,1.5C50.7,34.8,50.3,35,50,35z"/>
			</g>
			<g>
				<path class="st0" d="M104.3,35.1c-0.3,0-0.7-0.2-0.9-0.5c-0.4-0.5-0.2-1.2,0.3-1.5l10.3-7.5c0.5-0.4,1.2-0.2,1.5,0.3
					c0.4,0.5,0.2,1.2-0.3,1.5l-10.3,7.5C104.7,35,104.5,35.1,104.3,35.1z"/>
			</g>
			<g>
				<path class="st0" d="M78.8,24.3c-0.6,0-1.1-0.5-1.1-1.1V10.4c0-0.6,0.5-1.1,1.1-1.1s1.1,0.5,1.1,1.1v12.8
					C79.9,23.8,79.4,24.3,78.8,24.3z"/>
			</g>
			<g>
				<path class="st0" d="M62.3,26.8c-0.4,0-0.8-0.2-1-0.6l-5.5-11.9c-0.3-0.6,0-1.2,0.5-1.5c0.6-0.3,1.2,0,1.5,0.5l5.5,11.9
					c0.3,0.6,0,1.2-0.5,1.5C62.6,26.8,62.4,26.8,62.3,26.8z"/>
			</g>
			<g>
				<path class="st0" d="M96.1,26.7c-0.1,0-0.3,0-0.4-0.1c-0.6-0.2-0.8-0.9-0.6-1.5l5-11.5c0.2-0.6,0.9-0.8,1.5-0.6s0.8,0.9,0.6,1.5
					l-5,11.5C96.9,26.4,96.5,26.7,96.1,26.7z"/>
			</g>
			<path class="st10" d="M65.6,54c0.3-0.3,0.6-0.5,1-0.7c-0.4-0.1-0.8-0.3-1.2-0.5L65.6,54z"/>
			<path class="st10" d="M55.9,103c-1.2,3.8-2.7,17.7,26.6,38.4c29.4-20.7,27.8-34.6,26.6-38.4c-1.4-4.3-5.2-7-10.1-7
				c-6,0-11.8,4-15.6,10.6l-1,1.7l-1-1.7C77.8,100,72,96.1,66,96.1C61.2,96.1,57.3,98.7,55.9,103z"/>
			<g>
				<path class="st0" d="M73.2,95.5c0-1.7,0.1-3.4,0.1-5c0.2-7.2,0.3-13.9-0.9-19.1c-0.7-3-4.2-4.7-7.9-6.5c-3.1-1.5-6.2-3-7.9-5.3
					c-0.7-0.9-0.7-1-0.5-2.1c0-0.2,0.1-0.5,0.1-0.7c0.8-6.3,2.3-10.8,4.7-13.9c0,0,0,0,0-0.1c1.4,0.5,2.7,1.2,4.1,1.9
					c3.1,1.5,6.2,3.1,9.9,3.3c0.5,1.8-0.4,2.5-0.7,2.8c-1.9,1.5-6.6,1.1-9.2-0.8c-0.1-0.1-0.2-0.1-0.2-0.2c-0.6-0.5-1.1-0.4-1.4-0.2
					c-0.7,0.4-0.5,1.2-0.5,1.4l1.1,5.4c0,0.3,0.1,0.4,0.1,0.6c0.1,0.3,0.2,1.2,1.1,1.2s1.1-0.8,1.3-1.2c0-0.1,0.1-0.2,0.1-0.4
					c0.4-1.2,0.6-1.9,4.8-2.2c3.7-0.2,6.8,0.6,8.7,2.4c1.6,1.5,2.5,3.7,2.5,6.5h2.2c0-3.4-1.1-6.1-3.2-8.1c-1.6-1.4-3.7-2.4-6.1-2.8
					c0,0,0.1,0,0.1-0.1c0.3-0.2,0.6-0.5,0.9-0.9c0.5,0.1,1.1,0.1,1.7,0.1c1.4,0,3.1-0.2,4.3-1c1.3,0.8,3.4,1.2,5.1,1.2
					c0.3,0,0.6,0,0.9,0c1.2-0.1,2-0.4,2.5-0.8c0.8,0.2,1.9,0.3,3,0.3c0.9,0,1.9-0.1,2.6-0.4l-0.2,13.7c0,0.9-0.6,1.9-1.4,3.2
					c-1.2,2-2.9,4.8-2.8,9.1c0,1.4,0,2.8,0,4.3c0,4.3-0.1,9.1,0.4,13.9c0.7-0.3,1.4-0.5,2.1-0.8c-0.4-4.5-0.3-9.1-0.3-13.1
					c0-1.5,0-2.9,0-4.3c0-3.7,1.3-6,2.5-8c0.8-1.4,1.6-2.7,1.7-4.3l0.2-16.6c0.8-3.3-0.4-7.6-0.6-7.9c-1.1-2.2-4.7-2.5-7-2.1
					c-0.5-0.5-1.1-0.9-1.9-1.2c-1.8-0.6-4.1-0.5-5.7,0c-1.8-2.4-6.1-2.2-8.4-1.6c-0.3,0.1-0.5,0.1-0.8,0.2c-1.9-2.1-6-1.9-8.1-1.4
					c-2.9,0.7-3.6,2.6-4.7,6.8c-0.1,0-0.1,0-0.2-0.1l-0.1-0.1c-0.9-0.4-1.5-0.4-2.2,0.6c-0.1,0.1-0.1,0.2-0.2,0.2
					c-2.6,3.4-4.3,8.2-5.1,14.9c0,0.3-0.1,0.5-0.1,0.7c-0.2,1.4-0.3,2.2,0.9,3.7c2,2.7,5.4,4.3,8.7,6c3.2,1.6,6.3,3.1,6.8,5
					c1.2,4.9,1,11.5,0.8,18.5c0,1.4-0.1,2.8-0.1,4.2C71.7,94.9,72.4,95.1,73.2,95.5z M65.6,54l-0.2-1.1c0.4,0.2,0.8,0.3,1.2,0.5
					C66.2,53.5,65.9,53.7,65.6,54z M73.3,40.6c-0.1,1.5-0.1,3.2-0.1,5c-2.5-0.5-4.8-1.6-7.2-2.9c-0.7-0.3-1.4-0.7-2.1-1
					c1.1-4.2,1.4-5.1,3.1-5.5s5.7-0.6,6.3,1.2C73.4,37.8,73.3,39.4,73.3,40.6z M81.8,48.4c-0.5,1.1-3,1.3-4.6,1.2
					c0.1-0.8,0-1.8-0.5-3l-0.3-0.7h-0.8l0,0c-0.1,0-0.2,0-0.3,0c0-1.8,0-3.6,0.1-5.1c0.1-1.6,0.1-2.6,0.1-3.3c0.1,0,0.2-0.1,0.3-0.1
					c1.7-0.4,5.7-0.6,6.3,1.2C82.4,39.3,83.2,45,81.8,48.4z M89.8,49.2c-0.1,0.1-0.4,0.4-1.6,0.5c-1.6,0.2-3.4-0.2-4.4-0.7
					c1.4-3.4,1-8,0.6-10.1c1.2-0.3,2.9-0.4,4.1,0c0.4,0.2,1,0.4,1.2,0.9C90.1,40.6,91.2,46.4,89.8,49.2z M96.3,48.8
					c-0.3,0.4-2.1,0.6-4.1,0.3c0.9-3,0.4-7,0-8.9c1.9-0.2,3.7,0.2,4.1,0.9C96.6,42,97.6,46.6,96.3,48.8z"/>
				<g>
					<path class="st10" d="M66.9,36.2c-1.7,0.4-2.1,1.3-3.1,5.5c0.7,0.3,1.4,0.7,2.1,1c2.4,1.2,4.7,2.4,7.2,2.9c0-1.8,0.1-3.5,0.1-5
						c0.1-1.3,0.1-2.8,0-3.2C72.6,35.6,68.6,35.8,66.9,36.2z"/>
					<path class="st10" d="M75.8,37.3c-0.1,0-0.2,0.1-0.3,0.1c0.1,0.7,0,1.7-0.1,3.3c-0.1,1.5-0.2,3.3-0.1,5.1c0.1,0,0.2,0,0.3,0
						l0,0h0.8l0.3,0.7c0.5,1.2,0.6,2.2,0.5,3c1.6,0.1,4.1-0.1,4.6-1.2c1.5-3.4,0.7-9,0.4-9.8C81.5,36.7,77.5,36.9,75.8,37.3z"/>
					<path class="st10" d="M92.3,81.3c0-1.5,0-2.9,0-4.3c0-4.3,1.6-7.1,2.8-9.1c0.7-1.3,1.3-2.2,1.4-3.2L96.7,51
						c-0.8,0.3-1.7,0.4-2.6,0.4c-1.1,0-2.2-0.1-3-0.3c-0.5,0.4-1.3,0.7-2.5,0.8c-0.3,0-0.6,0-0.9,0c-1.7,0-3.8-0.4-5.1-1.2
						c-1.2,0.8-2.9,1-4.3,1c-0.6,0-1.2,0-1.7-0.1c-0.3,0.4-0.6,0.7-0.9,0.9c0,0-0.1,0-0.1,0.1c2.5,0.4,4.6,1.4,6.1,2.8
						c2.1,2,3.2,4.7,3.2,8.1h-2.2c0-2.8-0.9-5-2.5-6.5c-1.9-1.8-5-2.7-8.7-2.4c-4.3,0.3-4.5,1-4.8,2.2c0,0.2-0.1,0.3-0.1,0.4
						c-0.1,0.4-0.4,1.2-1.3,1.2c-0.9-0.1-1-0.9-1.1-1.2c0-0.1-0.1-0.3-0.1-0.6L63,51.2c-0.1-0.3-0.2-1,0.5-1.4
						c0.3-0.2,0.8-0.3,1.4,0.2c0.1,0,0.1,0.1,0.2,0.2c2.6,1.9,7.3,2.3,9.2,0.8c0.3-0.2,1.2-0.9,0.7-2.8c-3.7-0.2-6.9-1.8-9.9-3.3
						c-1.3-0.7-2.7-1.4-4.1-1.9c0,0,0,0,0,0.1c-2.3,3-3.9,7.6-4.7,13.9c0,0.3-0.1,0.5-0.1,0.7c-0.2,1.1-0.2,1.2,0.5,2.1
						c1.6,2.2,4.8,3.8,7.9,5.3c3.7,1.8,7.2,3.5,7.9,6.5c1.2,5.1,1.1,11.9,0.9,19.1c0,1.7-0.1,3.4-0.1,5c3.6,1.7,6.9,4.6,9.4,8.5
						c2.7-4.1,6.2-7.2,10-8.8C92.2,90.4,92.2,85.6,92.3,81.3z"/>
					<path class="st10" d="M88.6,38.9c-1.3-0.4-3-0.4-4.1,0c0.4,2.1,0.7,6.8-0.6,10.1c0.9,0.4,2.7,0.8,4.4,0.7
						c1.1-0.1,1.5-0.4,1.6-0.5c1.4-2.8,0.3-8.6,0-9.4C89.6,39.4,89.1,39.1,88.6,38.9z"/>
					<path class="st10" d="M96.3,41.1c-0.4-0.7-2.2-1.1-4.1-0.9c0.4,2,1,6,0,8.9c2,0.3,3.8,0,4.1-0.3C97.6,46.6,96.6,42,96.3,41.1z"
						/>
				</g>
			</g>
			<path class="st0" d="M111.3,102.4c-1.7-5.3-6.3-8.5-12.2-8.5c-1.5,0-2.9,0.2-4.4,0.6c-0.7,0.2-1.4,0.5-2.1,0.8
				c-3.8,1.6-7.3,4.6-10,8.8c-2.6-3.9-5.8-6.8-9.4-8.5c-0.7-0.3-1.5-0.6-2.2-0.9c-1.6-0.5-3.3-0.8-4.9-0.8c-5.9,0-10.5,3.3-12.2,8.5
				c-1.1,3.5-1.3,9.4,3.7,17.6c4.7,7.7,12.9,15.7,24.4,23.7l0.6,0.4l0.6-0.4c11.5-8,19.7-16,24.4-23.7
				C112.7,111.7,112.4,105.9,111.3,102.4z M81.6,106.6l1,1.7l1-1.7C87.4,100,93.2,96,99.2,96c4.9,0,8.7,2.7,10.1,7
				c1.2,3.8,2.7,17.7-26.6,38.4c-29.4-20.7-27.8-34.6-26.6-38.4c1.4-4.3,5.2-7,10.1-7C72,96.1,77.8,100,81.6,106.6z"/>
		</g>
	</g>
</g>
</svg>
